<svg xmlns="http://www.w3.org/2000/svg" width="19.205" height="16" viewBox="0 0 19.205 16"><defs><style>.a{fill:#fff;}</style></defs><path class="a" d="M64.485,96h.405a.591.591,0,0,1,.61.585v5.675l9.355-6.125a.684.684,0,0,1,.405-.115.8.8,0,0,1,.77.85v3.155l5.925-3.91a.684.684,0,0,1,.4-.115.8.8,0,0,1,.745.87v14.3a.729.729,0,0,1-1.16.68l-5.915-3.88v3.2a.782.782,0,0,1-.775.825.742.742,0,0,1-.41-.145L65.5,105.74v5.65a.609.609,0,0,1-.61.61h-.405a.591.591,0,0,1-.585-.61V96.585A.568.568,0,0,1,64.485,96Z" transform="translate(-63.9 -96)"/></svg>