<svg xmlns="http://www.w3.org/2000/svg" width="14.555" height="11.39" viewBox="0 0 14.555 11.39"><defs><style>.a{fill:#fff;stroke:#fff;stroke-width:1.5px;}</style></defs><g transform="translate(0.962 -59.662)"><path class="a" d="M.238,65.651a.268.268,0,0,1-.191-.08A.265.265,0,0,1,.054,65.2l4.813-4.649a.265.265,0,0,1,.367.382L.421,65.578A.254.254,0,0,1,.238,65.651Z" transform="translate(0 0)"/><path class="a" d="M5.055,250.68a.261.261,0,0,1-.183-.075L.058,245.955a.26.26,0,0,1-.06-.289.265.265,0,0,1,.246-.166H8.256a4.6,4.6,0,0,1,4.592,4.592v.322a.264.264,0,0,1-.528,0v-.324a4.066,4.066,0,0,0-4.061-4.061H.9l4.34,4.194a.265.265,0,0,1,.008.374A.261.261,0,0,1,5.055,250.68Z" transform="translate(-0.004 -180.377)"/></g></svg>