<svg xmlns="http://www.w3.org/2000/svg" width="14.667" height="16" viewBox="0 0 14.667 16"><defs><style>.a{fill:#fff;}</style></defs><g transform="translate(-128 -64)"><path class="a" d="M133.375,79.492V64.5c0-.279-.3-.5-.683-.5h-4.009c-.381,0-.683.225-.683.5V79.492c0,.279.3.508.683.508h4.009C133.073,80,133.375,79.775,133.375,79.492Z"/><path class="a" d="M292.692,64h-4.009c-.375,0-.683.225-.683.5V79.492c0,.279.3.508.683.508h4.009c.375,0,.683-.225.683-.508V64.5C293.375,64.225,293.073,64,292.692,64Z" transform="translate(-150.708)"/></g></svg>